<svg width="48" height="48" viewBox="0 0 48 48" fill="none" xmlns="http://www.w3.org/2000/svg">
<circle cx="24" cy="24" r="23" stroke="white" stroke-width="2"/>
<path d="M36 21.3335C36 30.6668 24 38.6668 24 38.6668C24 38.6668 12 30.6668 12 21.3335C12 18.1509 13.2643 15.0987 15.5147 12.8482C17.7652 10.5978 20.8174 9.3335 24 9.3335C27.1826 9.3335 30.2348 10.5978 32.4853 12.8482C34.7357 15.0987 36 18.1509 36 21.3335Z" stroke="white" stroke-width="2" stroke-linecap="round" stroke-linejoin="round"/>
<path d="M24 25.3335C26.2091 25.3335 28 23.5426 28 21.3335C28 19.1244 26.2091 17.3335 24 17.3335C21.7909 17.3335 20 19.1244 20 21.3335C20 23.5426 21.7909 25.3335 24 25.3335Z" stroke="white" stroke-width="2" stroke-linecap="round" stroke-linejoin="round"/>
</svg>
