<svg width="20" height="20" viewBox="0 0 20 20" fill="none" xmlns="http://www.w3.org/2000/svg">
<path d="M19.1667 15.8333C19.1667 16.2754 18.9911 16.6993 18.6785 17.0118C18.3659 17.3244 17.942 17.5 17.5 17.5H2.5C2.05797 17.5 1.63405 17.3244 1.32149 17.0118C1.00893 16.6993 0.833333 16.2754 0.833333 15.8333V6.66667C0.833333 6.22464 1.00893 5.80072 1.32149 5.48816C1.63405 5.17559 2.05797 5 2.5 5H5.83333L7.5 2.5H12.5L14.1667 5H17.5C17.942 5 18.3659 5.17559 18.6785 5.48816C18.9911 5.80072 19.1667 6.22464 19.1667 6.66667V15.8333Z" stroke="#8D8787" stroke-width="1.66667" stroke-linecap="round" stroke-linejoin="round"/>
<path fill-rule="evenodd" clip-rule="evenodd" d="M10 8.33341C8.61929 8.33341 7.5 9.4527 7.5 10.8334C7.5 12.2141 8.61929 13.3334 10 13.3334C11.3807 13.3334 12.5 12.2141 12.5 10.8334C12.5 9.4527 11.3807 8.33341 10 8.33341ZM5.83333 10.8334C5.83333 8.53223 7.69881 6.66675 10 6.66675C12.3012 6.66675 14.1667 8.53223 14.1667 10.8334C14.1667 13.1346 12.3012 15.0001 10 15.0001C7.69881 15.0001 5.83333 13.1346 5.83333 10.8334Z" fill="#8D8787"/>
</svg>
