<svg width="6" height="16" viewBox="0 0 6 16" fill="none" xmlns="http://www.w3.org/2000/svg">
<path fill-rule="evenodd" clip-rule="evenodd" d="M3.28807 15.8698C3.12897 16.0434 2.87103 16.0434 2.71193 15.8698L0.119321 13.0414C-0.039774 12.8678 -0.0397741 12.5864 0.119321 12.4129C0.278417 12.2393 0.536362 12.2393 0.695457 12.4129L2.59261 14.4826L2.59261 1.51743L0.695457 3.58714C0.536361 3.76071 0.278416 3.76071 0.119321 3.58714C-0.0397745 3.41358 -0.0397745 3.13217 0.119321 2.9586L2.71193 0.130175C2.87103 -0.0433904 3.12897 -0.0433904 3.28807 0.130175L5.88068 2.9586C6.03977 3.13217 6.03977 3.41357 5.88068 3.58714C5.72158 3.76071 5.46364 3.76071 5.30454 3.58714L3.40739 1.51743L3.40739 14.4826L5.30454 12.4129C5.46364 12.2393 5.72158 12.2393 5.88068 12.4129C6.03977 12.5864 6.03977 12.8678 5.88068 13.0414L3.28807 15.8698Z" fill="#575656"/>
</svg>
