<svg width="24" height="24" viewBox="0 0 24 24" fill="none" xmlns="http://www.w3.org/2000/svg">
<path d="M0 11.6696C0 6.07971 4.54025 0.838613 10.5272 0.0898848C14.8181 -0.409436 18.0612 1.23807 20.306 3.38388C22.4013 5.38015 23.6493 7.92593 23.9483 10.9208C24.1976 13.9152 23.5495 16.5107 21.8033 18.9566C20.0572 21.3528 16.6145 23.998 12.3235 23.998H6.48608V12.4685C6.53624 9.92271 7.38399 7.72671 10.4775 6.67839C13.1718 5.87998 16.315 7.37693 17.2631 10.2223C18.2608 13.2669 16.8136 15.3133 15.1176 16.5614C13.4216 17.8094 10.777 17.8094 9.03085 16.6116V20.5544C10.1786 21.1034 11.6253 21.253 12.6732 21.2033C16.4645 20.6538 19.4086 18.508 20.6561 15.2637C21.9538 11.8196 21.0549 7.82657 18.3612 5.33098C15.1181 2.68534 11.5756 2.03648 7.7838 3.88371C5.13971 5.23162 3.29371 7.97662 2.84425 10.971V23.9985H0.0501657L0 11.6696Z" fill="#FF5900"/>
</svg>
