<svg width="48" height="48" viewBox="0 0 48 48" fill="none" xmlns="http://www.w3.org/2000/svg">
<circle cx="24" cy="24" r="23" stroke="white" stroke-width="2"/>
<mask id="path-2-inside-1_133_326" fill="white">
<path d="M8 23.5604C8 16.1068 14.0537 9.11822 22.0364 8.11985C27.7578 7.45405 32.0819 9.65086 35.0749 12.5121C37.8687 15.174 39.5328 18.5686 39.9314 22.562C40.2639 26.5548 39.3997 30.0157 37.0715 33.2771C34.7432 36.4723 30.1529 39.9993 24.4316 39.9993H16.6482V24.6257C16.7151 21.2311 17.8454 18.3029 21.9702 16.9051C25.5626 15.8405 29.7536 17.8365 31.0177 21.6306C32.3481 25.6903 30.4184 28.4191 28.1571 30.0833C25.8957 31.7474 22.3695 31.7474 20.0413 30.1502V35.4076C21.5716 36.1397 23.5005 36.3391 24.8978 36.2729C29.9529 35.5401 33.8784 32.6789 35.5418 28.3528C37.2721 23.7605 36.0735 18.4361 32.4818 15.1084C28.1577 11.5807 23.4343 10.7155 18.3785 13.1786C14.853 14.9759 12.3917 18.6362 11.7924 22.629V40H8.06689L8 23.5604Z"/>
</mask>
<path d="M8 23.5604C8 16.1068 14.0537 9.11822 22.0364 8.11985C27.7578 7.45405 32.0819 9.65086 35.0749 12.5121C37.8687 15.174 39.5328 18.5686 39.9314 22.562C40.2639 26.5548 39.3997 30.0157 37.0715 33.2771C34.7432 36.4723 30.1529 39.9993 24.4316 39.9993H16.6482V24.6257C16.7151 21.2311 17.8454 18.3029 21.9702 16.9051C25.5626 15.8405 29.7536 17.8365 31.0177 21.6306C32.3481 25.6903 30.4184 28.4191 28.1571 30.0833C25.8957 31.7474 22.3695 31.7474 20.0413 30.1502V35.4076C21.5716 36.1397 23.5005 36.3391 24.8978 36.2729C29.9529 35.5401 33.8784 32.6789 35.5418 28.3528C37.2721 23.7605 36.0735 18.4361 32.4818 15.1084C28.1577 11.5807 23.4343 10.7155 18.3785 13.1786C14.853 14.9759 12.3917 18.6362 11.7924 22.629V40H8.06689L8 23.5604Z" fill="#FF5900"/>
<path d="M22.0364 8.11985L15.935 -44.3101L15.7104 -44.284L15.486 -44.2559L22.0364 8.11985ZM35.0749 12.5121L-1.39919 50.6667L-1.3675 50.697L-1.33576 50.7272L35.0749 12.5121ZM39.9314 22.562L92.5333 18.1827L92.4973 17.7507L92.4542 17.3192L39.9314 22.562ZM37.0715 33.2771L79.7311 64.3622L79.8824 64.1546L80.0317 63.9454L37.0715 33.2771ZM16.6482 39.9993H-36.1356V92.7831H16.6482V39.9993ZM16.6482 24.6257L-36.1254 23.5858L-36.1356 24.1057V24.6257H16.6482ZM21.9702 16.9051L6.97235 -33.7032L5.99457 -33.4134L5.0287 -33.0861L21.9702 16.9051ZM31.0177 21.6306L81.1771 5.19375L81.1364 5.06957L81.0951 4.94559L31.0177 21.6306ZM20.0413 30.1502L49.9013 -13.3758L-32.7426 -70.0719V30.1502H20.0413ZM20.0413 35.4076H-32.7426V68.6702L-2.73642 83.0239L20.0413 35.4076ZM24.8978 36.2729L27.3974 88.9975L29.9452 88.8767L32.4694 88.5108L24.8978 36.2729ZM35.5418 28.3528L84.809 47.2968L84.873 47.1304L84.9358 46.9636L35.5418 28.3528ZM32.4818 15.1084L68.3553 -23.6115L67.1364 -24.7407L65.849 -25.791L32.4818 15.1084ZM18.3785 13.1786L-4.73952 -34.2733L-5.16942 -34.0639L-5.59546 -33.8467L18.3785 13.1786ZM11.7924 22.629L-40.4067 14.7942L-40.9914 18.6898V22.629H11.7924ZM11.7924 40V92.7838H64.5762V40H11.7924ZM8.06689 40L-44.7165 40.2148L-44.5026 92.7838H8.06689V40ZM60.7838 23.5604C60.7838 43.404 46.3385 58.2755 28.5869 60.4956L15.486 -44.2559C-18.231 -40.0391 -44.7838 -11.1904 -44.7838 23.5604H60.7838ZM28.1378 60.5498C22.5315 61.2023 16.5307 60.4986 10.8506 58.343C5.4051 56.2764 1.3664 53.3105 -1.39919 50.6667L71.5491 -25.6424C59.4911 -37.1694 40.166 -47.13 15.935 -44.3101L28.1378 60.5498ZM-1.33576 50.7272C-7.8434 44.5268 -11.7579 36.154 -12.5914 27.8049L92.4542 17.3192C90.8236 0.983181 83.5808 -14.1789 71.4856 -25.703L-1.33576 50.7272ZM-12.6704 26.9413C-12.9302 23.8202 -12.8147 19.5872 -11.5523 14.7821C-10.2728 9.91153 -8.16818 5.80168 -5.88879 2.60871L80.0317 63.9454C90.1173 49.8176 93.8297 33.7544 92.5333 18.1827L-12.6704 26.9413ZM-5.58819 2.19194C-2.77392 -1.67022 0.733147 -4.96687 5.03896 -7.52817C9.57489 -10.2263 16.2139 -12.7845 24.4316 -12.7845V92.7831C51.8984 92.7831 70.7377 76.7043 79.7311 64.3622L-5.58819 2.19194ZM24.4316 -12.7845H16.6482V92.7831H24.4316V-12.7845ZM69.432 39.9993V24.6257H-36.1356V39.9993H69.432ZM69.4218 25.6656C69.3572 28.9417 68.769 37.7349 62.9308 47.3701C56.369 58.1995 46.81 64.2196 38.9117 66.8962L5.0287 -33.0861C-6.99433 -29.0116 -19.1809 -20.8285 -27.3558 -7.33684C-34.8071 4.96048 -35.9939 16.9151 -36.1254 23.5858L69.4218 25.6656ZM36.9681 67.5133C14.2826 74.2362 -10.9964 62.516 -19.0596 38.3156L81.0951 4.94559C70.5036 -26.843 36.8426 -42.5553 6.97235 -33.7032L36.9681 67.5133ZM-19.1416 38.0674C-22.2384 28.6172 -22.3276 17.0404 -17.5845 5.96911C-13.3628 -3.88499 -6.913 -9.64457 -3.12865 -12.4295L59.4428 72.596C65.4885 68.1469 74.0338 60.1908 79.453 47.5414C85.3937 33.6748 85.6042 18.7037 81.1771 5.19375L-19.1416 38.0674ZM-3.12865 -12.4295C6.09261 -19.2156 15.952 -21.398 23.8208 -21.4432C31.7024 -21.4885 41.0822 -19.4259 49.9013 -13.3758L-9.8188 73.6761C10.2548 87.4472 38.3443 88.1226 59.4428 72.596L-3.12865 -12.4295ZM-32.7426 30.1502V35.4076H72.8251V30.1502H-32.7426ZM-2.73642 83.0239C9.28408 88.774 20.7302 89.3135 27.3974 88.9975L22.3981 -16.4517C25.1066 -16.5802 27.8592 -16.4521 30.7009 -16.0063C33.4163 -15.5803 37.7726 -14.6226 42.8189 -12.2086L-2.73642 83.0239ZM32.4694 88.5108C53.3622 85.4825 75.2502 72.1561 84.809 47.2968L-13.7254 9.40884C-7.49348 -6.79833 6.54363 -14.4022 17.3261 -15.9651L32.4694 88.5108ZM84.9358 46.9636C94.0475 22.7807 88.0707 -5.34533 68.3553 -23.6115L-3.3916 53.8283C-15.9237 42.2175 -19.5033 24.7403 -13.8522 9.74207L84.9358 46.9636ZM65.849 -25.791C58.0521 -32.152 47.1971 -38.2746 33.4559 -40.3146C19.3352 -42.411 6.17701 -39.5918 -4.73952 -34.2733L41.4965 60.6306C35.6358 63.4858 27.3672 65.5061 17.9532 64.1085C8.91874 62.7672 2.58747 58.8411 -0.885306 56.0079L65.849 -25.791ZM-5.59546 -33.8467C-25.6949 -23.5998 -37.5186 -4.44793 -40.4067 14.7942L63.9915 30.4637C62.3019 41.7203 55.4009 53.5517 42.3525 60.2039L-5.59546 -33.8467ZM-40.9914 22.629V40H64.5762V22.629H-40.9914ZM11.7924 -12.7838H8.06689V92.7838H11.7924V-12.7838ZM60.8503 39.7852L60.7834 23.3456L-44.7834 23.7752L-44.7165 40.2148L60.8503 39.7852Z" fill="white" mask="url(#path-2-inside-1_133_326)"/>
</svg>
