<svg width="48" height="48" viewBox="0 0 48 48" fill="none" xmlns="http://www.w3.org/2000/svg">
<circle cx="24" cy="24" r="23" stroke="white" stroke-width="2"/>
<path d="M37.3333 30.56V34.56C37.3348 34.9313 37.2588 35.2989 37.11 35.6391C36.9612 35.9793 36.743 36.2848 36.4694 36.5358C36.1958 36.7868 35.8727 36.9779 35.521 37.0969C35.1692 37.2159 34.7965 37.2601 34.4266 37.2266C30.3238 36.7808 26.3826 35.3788 22.92 33.1333C19.6984 31.0862 16.9671 28.3549 14.92 25.1333C12.6666 21.6549 11.2643 17.6946 10.8266 13.5733C10.7933 13.2046 10.8371 12.833 10.9553 12.4821C11.0735 12.1313 11.2634 11.8089 11.513 11.5355C11.7626 11.262 12.0664 11.0436 12.405 10.894C12.7437 10.7444 13.1098 10.667 13.48 10.6666H17.48C18.1271 10.6603 18.7544 10.8894 19.245 11.3113C19.7356 11.7333 20.0561 12.3192 20.1466 12.96C20.3155 14.2401 20.6286 15.4969 21.08 16.7066C21.2594 17.1839 21.2982 17.7025 21.1919 18.2011C21.0855 18.6998 20.8385 19.1574 20.48 19.52L18.7866 21.2133C20.6847 24.5514 23.4486 27.3152 26.7866 29.2133L28.48 27.52C28.8425 27.1615 29.3002 26.9144 29.7988 26.8081C30.2974 26.7018 30.8161 26.7406 31.2933 26.92C32.503 27.3714 33.7599 27.6845 35.04 27.8533C35.6877 27.9447 36.2792 28.2709 36.702 28.77C37.1249 29.269 37.3495 29.9061 37.3333 30.56Z" stroke="white" stroke-width="2" stroke-linecap="round" stroke-linejoin="round"/>
</svg>
