<svg width="48" height="48" viewBox="0 0 48 48" fill="none" xmlns="http://www.w3.org/2000/svg">
<circle cx="24" cy="24" r="23" stroke="white" stroke-width="2"/>
<path fill-rule="evenodd" clip-rule="evenodd" d="M13.3333 14.6667C12.6031 14.6667 12 15.2697 12 16V32C12 32.7303 12.6031 33.3333 13.3333 33.3333H34.6667C35.397 33.3333 36 32.7303 36 32V16C36 15.2697 35.397 14.6667 34.6667 14.6667H13.3333ZM9.33334 16C9.33334 13.797 11.1303 12 13.3333 12H34.6667C36.8697 12 38.6667 13.797 38.6667 16V32C38.6667 34.203 36.8697 36 34.6667 36H13.3333C11.1303 36 9.33334 34.203 9.33334 32V16Z" fill="white"/>
<path fill-rule="evenodd" clip-rule="evenodd" d="M9.57439 15.2353C9.99668 14.6321 10.8281 14.4854 11.4313 14.9076L24 23.7057L36.5687 14.9076C37.172 14.4854 38.0034 14.6321 38.4257 15.2353C38.848 15.8386 38.7012 16.67 38.098 17.0923L24.7646 26.4256C24.3056 26.747 23.6945 26.747 23.2354 26.4256L9.90208 17.0923C9.29882 16.67 9.1521 15.8386 9.57439 15.2353Z" fill="white"/>
</svg>
