<svg width="24" height="24" viewBox="0 0 24 24" fill="none" xmlns="http://www.w3.org/2000/svg">
<path fill-rule="evenodd" clip-rule="evenodd" d="M24 3C24 1.34423 22.6558 0 21 0H3C1.34423 0 0 1.34423 0 3V21C0 22.6558 1.34423 24 3 24H21C22.6558 24 24 22.6558 24 21V3Z" fill="#2867B2"/>
<path d="M6.87948 8.375H2.85948V20.467H6.87948V8.375Z" fill="white"/>
<path d="M4.899 2.54443C3.52364 2.54443 2.625 3.44865 2.625 4.63379C2.625 5.79404 3.49631 6.7232 4.8458 6.7232H4.87177C6.27347 6.7232 7.14595 5.79404 7.14595 4.63379C7.11994 3.44865 6.27356 2.54443 4.899 2.54443Z" fill="white"/>
<path d="M16.7468 8.09082C14.6144 8.09082 13.6593 9.26349 13.1245 10.0872V8.37516H9.1055C9.1588 9.5094 9.1055 20.4671 9.1055 20.4671H13.1244V13.7141C13.1244 13.3526 13.1504 12.9913 13.2569 12.7329C13.547 12.0111 14.2087 11.2633 15.3191 11.2633C16.7728 11.2633 17.3552 12.3726 17.3552 13.9974V20.4671H21.3743V13.5329C21.3743 9.81863 19.3912 8.09082 16.7468 8.09082Z" fill="white"/>
</svg>
