<svg width="16" height="16" viewBox="0 0 16 16" fill="none" xmlns="http://www.w3.org/2000/svg">
<path d="M14.6592 9.7221L14.665 9.72998L14.6484 2.00169C14.6484 1.63243 14.3522 1.33325 13.9879 1.33325C13.7859 1.33325 13.6134 1.42923 13.4914 1.57276L13.4856 1.57079L11.1433 4.4866V4.49701C10.2967 3.76384 9.20199 3.31521 8.00003 3.31521C6.80945 3.31521 5.72446 3.75652 4.87952 4.47731L4.88425 4.46408L2.54588 1.58093L2.53866 1.58459C2.41752 1.43485 2.24164 1.33325 2.03687 1.33325C1.67483 1.33325 1.38143 1.63018 1.38143 1.99691L1.33419 9.82202C1.33419 9.8237 1.33336 9.8268 1.33336 9.8268C1.33336 9.82933 1.33336 9.83271 1.33336 9.83271V9.88422H1.33669C1.36587 12.4876 3.42499 14.5934 5.98674 14.6598V14.6666H9.88911C12.5275 14.6666 14.6667 12.4997 14.6667 9.82708C14.6667 9.7919 14.6592 9.75784 14.6592 9.7221ZM9.55847 13.8236H6.65524C6.58384 13.827 6.51326 13.8343 6.44102 13.8343C4.07349 13.8343 2.15468 11.8898 2.15468 9.49188C2.15468 9.39196 2.15968 9.29289 2.16607 9.1941L2.16523 9.19523V5.82883V3.24175V2.22769L4.79506 5.48602L4.79478 5.48968C4.81256 5.48208 4.82868 5.47167 4.84674 5.46407C5.65472 4.64787 6.76916 4.14323 8.00003 4.14323C9.22144 4.14323 10.3281 4.64111 11.1339 5.44634L13.8401 2.22741V3.08583V5.19191V9.29599L13.8379 9.29571C13.8407 9.35734 13.8448 9.41898 13.8448 9.48174C13.8451 11.8794 11.9263 13.8236 9.55847 13.8236Z" fill="#575656"/>
<path d="M5.51016 8.62394C5.90713 8.62394 6.22895 8.29795 6.22895 7.89583C6.22895 7.49371 5.90713 7.16772 5.51016 7.16772C5.11318 7.16772 4.79137 7.49371 4.79137 7.89583C4.79137 8.29795 5.11318 8.62394 5.51016 8.62394Z" fill="#575656"/>
<path d="M10.4898 8.62394C10.8868 8.62394 11.2086 8.29795 11.2086 7.89583C11.2086 7.49371 10.8868 7.16772 10.4898 7.16772C10.0928 7.16772 9.77103 7.49371 9.77103 7.89583C9.77103 8.29795 10.0928 8.62394 10.4898 8.62394Z" fill="#575656"/>
<path d="M7.99999 10.907L9.43757 9.49023H6.56268L7.99999 10.907Z" fill="#575656"/>
</svg>
