<svg width="16" height="6" viewBox="0 0 16 6" fill="none" xmlns="http://www.w3.org/2000/svg">
<path fill-rule="evenodd" clip-rule="evenodd" d="M0.130175 3.28807C-0.0433916 3.12897 -0.0433916 2.87103 0.130175 2.71193L2.9586 0.119322C3.13217 -0.0397739 3.41357 -0.0397739 3.58714 0.119322C3.76071 0.278417 3.76071 0.536362 3.58714 0.695457L1.51743 2.59261L14.4826 2.59261L12.4129 0.695457C12.2393 0.536362 12.2393 0.278417 12.4129 0.119322C12.5864 -0.0397739 12.8678 -0.0397739 13.0414 0.119322L15.8698 2.71193C16.0434 2.87103 16.0434 3.12897 15.8698 3.28807L13.0414 5.88068C12.8678 6.03977 12.5864 6.03977 12.4129 5.88068C12.2393 5.72158 12.2393 5.46364 12.4129 5.30454L14.4826 3.40739L1.51743 3.40739L3.58714 5.30454C3.76071 5.46364 3.76071 5.72158 3.58714 5.88068C3.41357 6.03977 3.13217 6.03977 2.9586 5.88068L0.130175 3.28807Z" fill="#575656"/>
</svg>
